<svg width="176" height="45" viewBox="0 0 176 45" fill="none" xmlns="http://www.w3.org/2000/svg">
<path d="M51.3436 31.2891C51.3436 39.7266 42.317 43.5938 26.6654 43.5938C10.9311 43.5938 1.9873 39.7266 1.9873 31.2891C1.9873 18.9141 51.3436 18.9141 51.3436 31.2891Z" fill="#E7A74F"/>
<path d="M51.1779 25.4531C51.1779 33.8906 42.2342 37.7578 26.5826 37.7578C11.0139 37.7578 1.9873 33.8906 1.9873 25.4531C2.07012 13.1484 51.1779 13.1484 51.1779 25.4531Z" fill="#BA8443"/>
<path d="M1.9873 25.6641C1.9873 22.1484 6.87324 17.2969 26.6654 17.2969C46.4576 17.2969 51.3436 22.2187 51.3436 25.6641C51.3436 32.0625 44.3873 36.7031 26.6654 36.7031C8.94356 36.7031 1.9873 32.0625 1.9873 25.6641Z" fill="#826046"/>
<path d="M2.48438 22.0078C2.48438 18.4922 7.2875 13.6406 26.6656 13.6406C46.0438 13.6406 50.8469 18.5625 50.8469 22.0078C50.8469 28.4062 44.0563 33.0469 26.6656 33.0469C9.275 33.0469 2.48438 28.4062 2.48438 22.0078Z" fill="#68472C"/>
<path d="M2.64978 17.4375C3.80915 15.3281 6.87322 15.1875 16.8107 18.7734C26.7482 22.3594 28.6529 24.2578 27.4935 26.4375C25.3404 30.3047 19.4607 33.1875 10.517 29.9531C1.57322 26.7187 0.413842 21.375 2.64978 17.4375Z" fill="#EF4D3C"/>
<path d="M3.47791 15.0469C4.63728 12.9375 7.70134 12.7969 17.6388 16.3828C27.5763 19.9687 29.481 21.8672 28.3217 24.0469C26.1685 27.914 20.2888 30.7969 11.3451 27.5625C2.40134 24.3281 1.24197 18.914 3.47791 15.0469Z" fill="#D33B23"/>
<path d="M24.2641 24.2579C23.6016 22.0079 25.9204 20.3907 36.6032 18.4219C47.286 16.4532 50.1844 17.0157 50.8469 19.336C52.0891 23.4844 49.6047 28.6172 39.9985 30.3751C30.4751 32.1329 25.4235 28.4063 24.2641 24.2579Z" fill="#EF4D3C"/>
<path d="M23.1875 22.0079C22.525 19.7579 24.8437 18.1407 35.5265 16.1719C46.2093 14.2032 49.1078 14.7657 49.7703 17.086C51.0125 21.2344 48.5281 26.3672 38.9218 28.1251C29.3984 29.8829 24.4296 26.1563 23.1875 22.0079Z" fill="#D33B23"/>
<path d="M8.03271 21.7266L24.5952 35.2266L40.8265 21.7266H8.03271Z" fill="#FFE62E"/>
<path d="M50.2674 18.2109C50.2674 18.2109 51.0127 20.6016 50.2674 21.3047C49.6049 21.9375 47.5346 21.2344 46.6236 21.7969C45.7955 22.2891 46.0439 24.1875 45.0502 24.6094C44.1393 25.0313 42.4002 23.8359 41.4064 24.1875C40.4955 24.4688 40.1643 26.3672 39.1705 26.6484C38.1768 26.8594 36.6861 25.4531 35.6924 25.5938C34.6986 25.7344 34.0361 27.5625 32.9596 27.7031C31.9658 27.8438 30.7236 26.2266 29.6471 26.2969C28.6533 26.3672 27.6596 28.0547 26.583 28.0547C25.5064 28.0547 24.5955 26.2969 23.5189 26.2969C22.4424 26.2266 21.283 27.8438 20.2064 27.7031C19.1299 27.5625 18.4674 25.8047 17.4736 25.5938C16.3971 25.3828 14.9893 26.8594 13.9955 26.6484C13.0018 26.3672 12.6705 24.5391 11.7596 24.1875C10.7658 23.8359 8.94394 25.0313 8.11582 24.6094C7.12207 24.1875 7.37051 22.2891 6.54238 21.7969C5.63145 21.2344 3.56113 21.9375 2.89863 21.3047C2.15332 20.6016 2.89863 18.2109 2.89863 18.2109H50.2674Z" fill="#8CC63E"/>
<path d="M51.3436 16.4531C51.3436 21.0234 40.3295 23.2734 26.6654 23.2734C13.0014 23.2734 1.9873 21.0234 1.9873 16.4531C1.9873 8.15625 13.0014 1.40625 26.6654 1.40625C40.3295 1.40625 51.3436 8.15625 51.3436 16.4531Z" fill="#E7A74F"/>
<path d="M13.4984 10.125L12.1734 11.1797L10.9312 10.125L12.1734 9.07031L13.4984 10.125ZM19.6266 8.4375L18.3844 9.49219L17.1422 8.4375L18.3844 7.38281L19.6266 8.4375ZM23.1875 13.2188L21.8625 14.2734L20.6203 13.2188L21.8625 12.1641L23.1875 13.2188ZM27.4937 9.42188L26.6656 10.125L25.8375 9.42188L26.6656 8.71875L27.4937 9.42188ZM42.9797 12.1641L42.1516 12.8672L41.3234 12.1641L42.1516 11.4609L42.9797 12.1641ZM48.1141 12.8672L47.2859 13.5703L46.4578 12.8672L47.2859 12.1641L48.1141 12.8672ZM38.425 7.73438L37.5969 8.4375L36.7687 7.73438L37.5969 7.03125L38.425 7.73438ZM13.1672 6.82031L12.3391 7.52344L11.5109 6.82031L12.3391 6.11719L13.1672 6.82031ZM8.69531 10.125L7.86719 10.8281L7.03906 10.125L7.86719 9.42188L8.69531 10.125ZM13.9125 14.8359L13.0844 15.5391L12.1734 14.8359L13.0844 14.1328L13.9125 14.8359ZM23.6016 4.00781L22.7734 4.71094L21.8625 4.00781L22.7734 3.30469L23.6016 4.00781ZM31.4687 3.30469L30.6406 4.00781L29.8125 3.30469L30.6406 2.60156L31.4687 3.30469ZM18.3844 4.71094L17.5562 5.41406L16.7281 4.71094L17.5562 4.00781L18.3844 4.71094ZM42.1516 6.39844L41.3234 7.10156L40.4953 6.39844L41.3234 5.69531L42.1516 6.39844ZM33.125 15.2578L31.8828 16.3125L30.6406 15.2578L31.8828 14.2031L33.125 15.2578ZM31.1375 9.84375L29.8953 10.8984L28.6531 9.84375L29.8953 8.78906L31.1375 9.84375ZM35.775 5.76562L34.5328 6.82031L33.2906 5.76562L34.5328 4.71094L35.775 5.76562ZM39.4187 10.3359L38.1766 11.3906L36.8516 10.3359L38.1766 9.28125L39.4187 10.3359ZM44.7187 8.78906L43.4766 9.84375L42.1516 8.78906L43.4766 7.73438L44.7187 8.78906ZM40.6609 14.9766L39.4187 16.0312L38.1766 14.9766L39.4187 13.9219L40.6609 14.9766ZM10.3516 13.1484L9.10937 14.2031L7.86719 13.1484L9.10937 12.0938L10.3516 13.1484Z" fill="#FFC17A"/>
<path d="M54.432 32C54.1973 32 54 31.92 53.84 31.76C53.68 31.6 53.6 31.4027 53.6 31.168V20.336C53.6 20.0907 53.68 19.8933 53.84 19.744C54 19.584 54.1973 19.504 54.432 19.504C54.6773 19.504 54.8747 19.584 55.024 19.744C55.184 19.8933 55.264 20.0907 55.264 20.336V24.928H62.688V20.336C62.688 20.0907 62.768 19.8933 62.928 19.744C63.088 19.584 63.2853 19.504 63.52 19.504C63.7653 19.504 63.9627 19.584 64.112 19.744C64.2613 19.8933 64.336 20.0907 64.336 20.336V31.168C64.336 31.4027 64.2613 31.6 64.112 31.76C63.9627 31.92 63.7653 32 63.52 32C63.2853 32 63.088 31.92 62.928 31.76C62.768 31.6 62.688 31.4027 62.688 31.168V26.4H55.264V31.168C55.264 31.4027 55.184 31.6 55.024 31.76C54.8747 31.92 54.6773 32 54.432 32ZM73.3135 32.16C72.3748 32.16 71.5162 32.0053 70.7375 31.696C69.9588 31.376 69.2868 30.9333 68.7215 30.368C68.1668 29.792 67.7348 29.1147 67.4255 28.336C67.1162 27.5467 66.9615 26.6827 66.9615 25.744C66.9615 24.8053 67.1162 23.9467 67.4255 23.168C67.7348 22.3893 68.1668 21.7173 68.7215 21.152C69.2868 20.576 69.9588 20.1333 70.7375 19.824C71.5162 19.504 72.3748 19.344 73.3135 19.344C74.2522 19.344 75.1055 19.504 75.8735 19.824C76.6522 20.1333 77.3242 20.576 77.8895 21.152C78.4548 21.7173 78.8922 22.3893 79.2015 23.168C79.5108 23.9467 79.6655 24.8053 79.6655 25.744C79.6655 26.6827 79.5108 27.5467 79.2015 28.336C78.8922 29.1147 78.4548 29.792 77.8895 30.368C77.3242 30.9333 76.6522 31.376 75.8735 31.696C75.1055 32.0053 74.2522 32.16 73.3135 32.16ZM73.3135 30.656C74.0068 30.656 74.6415 30.5333 75.2175 30.288C75.8042 30.032 76.3108 29.6853 76.7375 29.248C77.1642 28.8 77.4895 28.2773 77.7135 27.68C77.9482 27.0827 78.0655 26.4373 78.0655 25.744C78.0655 25.0507 77.9482 24.4053 77.7135 23.808C77.4895 23.2107 77.1642 22.6933 76.7375 22.256C76.3108 21.808 75.8042 21.4613 75.2175 21.216C74.6415 20.9707 74.0068 20.848 73.3135 20.848C72.6202 20.848 71.9802 20.9707 71.3935 21.216C70.8175 21.4613 70.3162 21.808 69.8895 22.256C69.4735 22.6933 69.1482 23.2107 68.9135 23.808C68.6788 24.4053 68.5615 25.0507 68.5615 25.744C68.5615 26.4373 68.6788 27.0827 68.9135 27.68C69.1482 28.2773 69.4735 28.8 69.8895 29.248C70.3162 29.6853 70.8175 30.032 71.3935 30.288C71.9802 30.5333 72.6202 30.656 73.3135 30.656ZM85.0148 32C84.7801 32 84.5828 31.92 84.4227 31.76C84.2628 31.6 84.1828 31.4027 84.1828 31.168V19.504H85.8468V31.168C85.8468 31.4027 85.7668 31.6 85.6068 31.76C85.4468 31.92 85.2494 32 85.0148 32ZM80.7268 21.04C80.5028 21.04 80.3161 20.9707 80.1668 20.832C80.0281 20.6827 79.9588 20.496 79.9588 20.272C79.9588 20.048 80.0281 19.8667 80.1668 19.728C80.3161 19.5787 80.5028 19.504 80.7268 19.504H89.2868C89.5108 19.504 89.6921 19.5787 89.8308 19.728C89.9801 19.8667 90.0548 20.048 90.0548 20.272C90.0548 20.496 89.9801 20.6827 89.8308 20.832C89.6921 20.9707 89.5108 21.04 89.2868 21.04H80.7268Z" fill="white"/>
<path d="M92.7289 32C92.4942 32 92.2969 31.92 92.1369 31.76C91.9769 31.6 91.8969 31.4027 91.8969 31.168V20.336C91.8969 20.0907 91.9769 19.8933 92.1369 19.744C92.2969 19.584 92.4942 19.504 92.7289 19.504H96.5529C97.2782 19.504 97.9129 19.648 98.4569 19.936C99.0115 20.2133 99.4435 20.6027 99.7529 21.104C100.073 21.6053 100.233 22.1813 100.233 22.832C100.233 23.3547 100.089 23.8293 99.8009 24.256C99.5235 24.672 99.1395 25.0027 98.6489 25.248C99.3529 25.4187 99.9182 25.7547 100.345 26.256C100.772 26.7573 100.985 27.4133 100.985 28.224C100.985 28.96 100.809 29.6107 100.457 30.176C100.116 30.7413 99.6355 31.1893 99.0169 31.52C98.3982 31.84 97.6889 32 96.8889 32H92.7289ZM93.5609 30.464H96.8889C97.3795 30.464 97.8115 30.3787 98.1849 30.208C98.5582 30.0373 98.8515 29.7867 99.0649 29.456C99.2782 29.1253 99.3849 28.7147 99.3849 28.224C99.3849 27.7653 99.2782 27.3867 99.0649 27.088C98.8515 26.7893 98.5582 26.5653 98.1849 26.416C97.8115 26.256 97.3795 26.176 96.8889 26.176H93.5609V30.464ZM93.5609 24.64H96.5529C97.1609 24.64 97.6569 24.4907 98.0409 24.192C98.4355 23.8933 98.6329 23.44 98.6329 22.832C98.6329 22.224 98.4355 21.776 98.0409 21.488C97.6569 21.1893 97.1609 21.04 96.5529 21.04H93.5609V24.64ZM108.691 32.256C107.667 32.256 106.761 32.0693 105.971 31.696C105.182 31.312 104.563 30.784 104.115 30.112C103.678 29.44 103.459 28.672 103.459 27.808V20.336C103.459 20.0907 103.539 19.8933 103.699 19.744C103.859 19.584 104.057 19.504 104.291 19.504C104.537 19.504 104.734 19.584 104.883 19.744C105.043 19.8933 105.123 20.0907 105.123 20.336V27.808C105.123 28.384 105.273 28.896 105.571 29.344C105.881 29.7813 106.302 30.128 106.835 30.384C107.379 30.6293 107.998 30.752 108.691 30.752C109.363 30.752 109.955 30.6293 110.467 30.384C110.99 30.128 111.395 29.7813 111.683 29.344C111.982 28.896 112.131 28.384 112.131 27.808V20.336C112.131 20.0907 112.211 19.8933 112.371 19.744C112.531 19.584 112.729 19.504 112.963 19.504C113.209 19.504 113.406 19.584 113.555 19.744C113.705 19.8933 113.779 20.0907 113.779 20.336V27.808C113.779 28.672 113.561 29.44 113.123 30.112C112.697 30.784 112.099 31.312 111.331 31.696C110.563 32.0693 109.683 32.256 108.691 32.256ZM117.807 32C117.572 32 117.375 31.92 117.215 31.76C117.055 31.6 116.975 31.4027 116.975 31.168V20.336C116.975 20.0907 117.055 19.8933 117.215 19.744C117.375 19.584 117.572 19.504 117.807 19.504H120.687C121.487 19.504 122.196 19.6747 122.815 20.016C123.434 20.3467 123.914 20.8053 124.255 21.392C124.607 21.9787 124.783 22.6613 124.783 23.44C124.783 24.1653 124.607 24.8107 124.255 25.376C123.914 25.9413 123.434 26.384 122.815 26.704C122.196 27.024 121.487 27.184 120.687 27.184H118.639V31.168C118.639 31.4027 118.559 31.6 118.399 31.76C118.25 31.92 118.052 32 117.807 32ZM124.447 32C124.298 32 124.159 31.968 124.031 31.904C123.914 31.84 123.812 31.7387 123.727 31.6L120.847 26.96L122.463 26.496L125.087 30.72C125.279 31.0293 125.306 31.3227 125.167 31.6C125.028 31.8667 124.788 32 124.447 32ZM118.639 25.648H120.687C121.178 25.648 121.61 25.5573 121.983 25.376C122.356 25.184 122.65 24.9227 122.863 24.592C123.076 24.2507 123.183 23.8667 123.183 23.44C123.183 22.9707 123.076 22.5547 122.863 22.192C122.65 21.8293 122.356 21.5467 121.983 21.344C121.61 21.1413 121.178 21.04 120.687 21.04H118.639V25.648ZM132.684 32.16C131.82 32.16 131.01 32 130.252 31.68C129.506 31.3493 128.85 30.896 128.284 30.32C127.73 29.7333 127.292 29.0507 126.972 28.272C126.663 27.4933 126.508 26.6507 126.508 25.744C126.508 24.848 126.663 24.016 126.972 23.248C127.292 22.4693 127.73 21.792 128.284 21.216C128.85 20.6293 129.506 20.1707 130.252 19.84C130.999 19.5093 131.81 19.344 132.684 19.344C133.506 19.344 134.21 19.4507 134.796 19.664C135.394 19.8773 135.991 20.2293 136.588 20.72C136.674 20.784 136.738 20.8533 136.78 20.928C136.834 20.992 136.866 21.0613 136.876 21.136C136.898 21.2 136.908 21.28 136.908 21.376C136.908 21.5787 136.834 21.7493 136.684 21.888C136.546 22.0267 136.37 22.1013 136.156 22.112C135.954 22.1227 135.762 22.0533 135.58 21.904C135.186 21.5627 134.775 21.3013 134.348 21.12C133.932 20.9387 133.378 20.848 132.684 20.848C132.055 20.848 131.463 20.976 130.908 21.232C130.354 21.488 129.863 21.84 129.436 22.288C129.02 22.736 128.695 23.2587 128.46 23.856C128.226 24.4427 128.108 25.072 128.108 25.744C128.108 26.4267 128.226 27.0667 128.46 27.664C128.695 28.2507 129.02 28.768 129.436 29.216C129.863 29.664 130.354 30.016 130.908 30.272C131.463 30.5173 132.055 30.64 132.684 30.64C133.228 30.64 133.74 30.5493 134.22 30.368C134.711 30.176 135.18 29.9147 135.628 29.584C135.82 29.4453 136.007 29.3867 136.188 29.408C136.38 29.4187 136.54 29.4933 136.668 29.632C136.796 29.76 136.86 29.9413 136.86 30.176C136.86 30.2827 136.839 30.3893 136.796 30.496C136.764 30.592 136.7 30.6827 136.604 30.768C136.039 31.2373 135.426 31.5893 134.764 31.824C134.103 32.048 133.41 32.16 132.684 32.16ZM136.86 30.176L135.26 29.856V26.992H133.052C132.818 26.992 132.62 26.9227 132.46 26.784C132.3 26.6453 132.22 26.4693 132.22 26.256C132.22 26.0427 132.3 25.8667 132.46 25.728C132.62 25.5893 132.818 25.52 133.052 25.52H136.044C136.29 25.52 136.487 25.6 136.636 25.76C136.786 25.9093 136.86 26.1067 136.86 26.352V30.176ZM140.354 32C140.119 32 139.922 31.92 139.762 31.76C139.602 31.6 139.522 31.4027 139.522 31.168V20.336C139.522 20.0907 139.602 19.8933 139.762 19.744C139.922 19.584 140.119 19.504 140.354 19.504H147.586C147.831 19.504 148.029 19.5787 148.178 19.728C148.327 19.8667 148.402 20.0533 148.402 20.288C148.402 20.512 148.327 20.6933 148.178 20.832C148.029 20.9707 147.831 21.04 147.586 21.04H141.186V24.928H145.778C146.023 24.928 146.221 25.0027 146.37 25.152C146.519 25.2907 146.594 25.472 146.594 25.696C146.594 25.92 146.519 26.1067 146.37 26.256C146.221 26.3947 146.023 26.464 145.778 26.464H141.186V30.464H147.586C147.831 30.464 148.029 30.5333 148.178 30.672C148.327 30.8107 148.402 30.992 148.402 31.216C148.402 31.4507 148.327 31.6427 148.178 31.792C148.029 31.9307 147.831 32 147.586 32H140.354ZM151.557 32C151.322 32 151.125 31.92 150.965 31.76C150.805 31.6 150.725 31.4027 150.725 31.168V20.336C150.725 20.0907 150.805 19.8933 150.965 19.744C151.125 19.584 151.322 19.504 151.557 19.504H154.437C155.237 19.504 155.946 19.6747 156.565 20.016C157.184 20.3467 157.664 20.8053 158.005 21.392C158.357 21.9787 158.533 22.6613 158.533 23.44C158.533 24.1653 158.357 24.8107 158.005 25.376C157.664 25.9413 157.184 26.384 156.565 26.704C155.946 27.024 155.237 27.184 154.437 27.184H152.389V31.168C152.389 31.4027 152.309 31.6 152.149 31.76C152 31.92 151.802 32 151.557 32ZM158.197 32C158.048 32 157.909 31.968 157.781 31.904C157.664 31.84 157.562 31.7387 157.477 31.6L154.597 26.96L156.213 26.496L158.837 30.72C159.029 31.0293 159.056 31.3227 158.917 31.6C158.778 31.8667 158.538 32 158.197 32ZM152.389 25.648H154.437C154.928 25.648 155.36 25.5573 155.733 25.376C156.106 25.184 156.4 24.9227 156.613 24.592C156.826 24.2507 156.933 23.8667 156.933 23.44C156.933 22.9707 156.826 22.5547 156.613 22.192C156.4 21.8293 156.106 21.5467 155.733 21.344C155.36 21.1413 154.928 21.04 154.437 21.04H152.389V25.648Z" fill="#E7A74F"/>
</svg>
