<svg width="23" height="26" viewBox="0 0 23 26" fill="none" xmlns="http://www.w3.org/2000/svg">
<rect width="22.5" height="26" fill="#55ACEE"/>
<path d="M18.7497 8.40127C18.2077 8.63552 17.6344 8.79038 17.0478 8.86103C17.6667 8.49273 18.1305 7.91333 18.3531 7.23031C17.7715 7.57518 17.1349 7.81816 16.4709 7.94869C16.0271 7.46922 15.436 7.15007 14.7905 7.04127C14.1449 6.93248 13.4814 7.0402 12.9039 7.34754C12.3264 7.65489 11.8677 8.14447 11.5997 8.7395C11.3316 9.33454 11.2694 10.0014 11.4228 10.6354C10.2469 10.5762 9.09669 10.2712 8.04684 9.74022C6.997 9.20927 6.07102 8.46426 5.32906 7.55358C5.06883 8.00628 4.93208 8.51895 4.93243 9.04062C4.93151 9.52508 5.05086 10.0023 5.27985 10.4296C5.50884 10.857 5.84038 11.2214 6.24493 11.4903C5.77472 11.4775 5.31456 11.3519 4.90358 11.1239V11.1598C4.90711 11.8386 5.14589 12.4954 5.57953 13.019C6.01318 13.5426 6.61507 13.9009 7.28339 14.0333C7.02612 14.1113 6.75902 14.1524 6.49012 14.1555C6.30398 14.1533 6.11831 14.1365 5.93483 14.1052C6.12515 14.6891 6.49345 15.1994 6.98849 15.565C7.48353 15.9307 8.08068 16.1335 8.69685 16.1454C7.65637 16.9609 6.37177 17.406 5.04781 17.4097C4.80676 17.4105 4.56589 17.3961 4.32666 17.3666C5.67841 18.236 7.25369 18.6976 8.86272 18.6956C9.97307 18.7071 11.0746 18.4981 12.1029 18.0807C13.1313 17.6634 14.0659 17.0461 14.852 16.265C15.6382 15.4838 16.2603 14.5544 16.6819 13.5311C17.1034 12.5078 17.3161 11.4111 17.3074 10.305V9.92422C17.8733 9.50384 18.3614 8.98848 18.7497 8.40127Z" fill="white"/>
</svg>
