<svg width="34" height="32" viewBox="0 0 34 32" fill="none" xmlns="http://www.w3.org/2000/svg">
<path d="M29.6188 6H4.23135C3.67025 6 3.13213 6.21071 2.73537 6.58579C2.33862 6.96086 2.11572 7.46957 2.11572 8V24C2.11572 24.5304 2.33862 25.0391 2.73537 25.4142C3.13213 25.7893 3.67025 26 4.23135 26H29.6188C30.1799 26 30.718 25.7893 31.1148 25.4142C31.5116 25.0391 31.7345 24.5304 31.7345 24V8C31.7345 7.46957 31.5116 6.96086 31.1148 6.58579C30.718 6.21071 30.1799 6 29.6188 6ZM27.2916 8L16.9251 14.78L6.55853 8H27.2916ZM4.23135 24V8.91L16.3221 16.82C16.4992 16.9361 16.7096 16.9984 16.9251 16.9984C17.1406 16.9984 17.351 16.9361 17.528 16.82L29.6188 8.91V24H4.23135Z" fill="#E7A74F"/>
</svg>
