<svg width="37" height="32" viewBox="0 0 37 32" fill="none" xmlns="http://www.w3.org/2000/svg">
<g clip-path="url(#clip0_77_1680)">
<path fill-rule="evenodd" clip-rule="evenodd" d="M18.0348 29.3332C9.73429 29.3332 3.00586 23.3638 3.00586 15.9998C3.00586 8.63584 9.73429 2.6665 18.0348 2.6665C26.3352 2.6665 33.0636 8.63584 33.0636 15.9998C33.0636 23.3638 26.3352 29.3332 18.0348 29.3332ZM30.0579 15.9998C30.0579 13.1709 28.7911 10.4578 26.5364 8.45737C24.2816 6.45698 21.2235 5.33317 18.0348 5.33317C14.846 5.33317 11.7879 6.45698 9.53313 8.45737C7.27836 10.4578 6.01164 13.1709 6.01164 15.9998C6.01164 18.8288 7.27836 21.5419 9.53313 23.5423C11.7879 25.5427 14.846 26.6665 18.0348 26.6665C21.2235 26.6665 24.2816 25.5427 26.5364 23.5423C28.7911 21.5419 30.0579 18.8288 30.0579 15.9998ZM24.0463 14.6665C24.4449 14.6665 24.8272 14.807 25.109 15.057C25.3909 15.3071 25.5492 15.6462 25.5492 15.9998C25.5492 16.3535 25.3909 16.6926 25.109 16.9426C24.8272 17.1927 24.4449 17.3332 24.0463 17.3332H19.5376C17.8845 17.3332 16.5319 16.1332 16.5319 14.6665V9.33317C16.5319 8.97955 16.6902 8.64041 16.972 8.39036C17.2539 8.14031 17.6362 7.99984 18.0348 7.99984C18.4333 7.99984 18.8156 8.14031 19.0975 8.39036C19.3793 8.64041 19.5376 8.97955 19.5376 9.33317V14.6665H24.0463Z" fill="#E7A74F"/>
</g>
<defs>
<clipPath id="clip0_77_1680">
<rect width="36.0693" height="32" fill="white"/>
</clipPath>
</defs>
</svg>
