<svg width="30" height="25" viewBox="0 0 30 25" fill="none" xmlns="http://www.w3.org/2000/svg">
<path d="M6.01424 17.6701C6.01464 17.6701 6.01493 17.6697 6.01486 17.6693L3.52253 4.18319C3.3423 3.20793 2.49177 2.50019 1.5 2.50019C1.10218 2.50019 0.720644 2.3685 0.43934 2.13408C0.158035 1.89966 0 1.58172 0 1.2502C0 0.918683 0.158035 0.600743 0.43934 0.366325C0.720644 0.131907 1.10218 0.000211658 1.5 0.000211658H4.4775C4.83937 -0.00535547 5.19129 0.099064 5.4675 0.293959C5.75101 0.492628 5.93595 0.771907 5.9865 1.0777C6.27155 2.62608 7.62148 3.75018 9.19589 3.75018H16.75C17.4404 3.75018 18 4.30982 18 5.00017C18 5.69052 17.4404 6.25016 16.75 6.25016H12.9473C9.82258 6.25016 7.46342 9.0844 8.03038 12.1573C8.46792 14.5288 10.5358 16.2501 12.9473 16.2501H19.5627C21.5554 16.2501 23.334 15 24.009 13.1251L24.7832 10.9745C24.9937 10.3899 25.5482 10.0001 26.1696 10.0001C27.1901 10.0001 27.9016 11.0125 27.5559 11.9726L25.437 17.8588C25.3444 18.1164 25.1545 18.3423 24.8957 18.5028C24.6368 18.6634 24.3227 18.7501 24 18.7501H7.524C7.15188 18.7558 6.79067 18.6452 6.5115 18.4401C6.23964 18.2421 6.06283 17.9688 6.01362 17.6708C6.01356 17.6704 6.01385 17.6701 6.01424 17.6701ZM12 22.5C12 23.1631 11.6839 23.7989 11.1213 24.2678C10.5587 24.7366 9.79565 25 9 25C8.20435 25 7.44129 24.7366 6.87868 24.2678C6.31607 23.7989 6 23.1631 6 22.5C6 21.837 6.31607 21.2011 6.87868 20.7323C7.44129 20.2634 8.20435 20 9 20C9.79565 20 10.5587 20.2634 11.1213 20.7323C11.6839 21.2011 12 21.837 12 22.5ZM25.5 22.5C25.5 23.1631 25.1839 23.7989 24.6213 24.2678C24.0587 24.7366 23.2956 25 22.5 25C21.7043 25 20.9413 24.7366 20.3787 24.2678C19.8161 23.7989 19.5 23.1631 19.5 22.5C19.5 21.837 19.8161 21.2011 20.3787 20.7323C20.9413 20.2634 21.7043 20 22.5 20C23.2956 20 24.0587 20.2634 24.6213 20.7323C25.1839 21.2011 25.5 21.837 25.5 22.5ZM25.5 0.000211658C25.8978 0.000211658 26.2794 0.131907 26.5607 0.366325C26.842 0.600743 27 0.918683 27 1.2502C27 1.94055 27.5596 2.50019 28.25 2.50019H28.5C28.8978 2.50019 29.2794 2.63189 29.5607 2.8663C29.842 3.10072 30 3.41866 30 3.75018C30 4.0817 29.842 4.39964 29.5607 4.63406C29.2794 4.86847 28.8978 5.00017 28.5 5.00017H28.25C27.5596 5.00017 27 5.55981 27 6.25016C27 6.58168 26.842 6.89962 26.5607 7.13403C26.2794 7.36845 25.8978 7.50015 25.5 7.50015C25.1022 7.50015 24.7206 7.36845 24.4393 7.13403C24.158 6.89962 24 6.58168 24 6.25016C24 5.55981 23.4404 5.00017 22.75 5.00017H22.5C22.1022 5.00017 21.7206 4.86847 21.4393 4.63406C21.158 4.39964 21 4.0817 21 3.75018C21 3.41866 21.158 3.10072 21.4393 2.8663C21.7206 2.63189 22.1022 2.50019 22.5 2.50019H22.75C23.4404 2.50019 24 1.94055 24 1.2502C24 0.918683 24.158 0.600743 24.4393 0.366325C24.7206 0.131907 25.1022 0.000211658 25.5 0.000211658Z" fill="white"/>
</svg>
