<svg width="23" height="26" viewBox="0 0 23 26" fill="none" xmlns="http://www.w3.org/2000/svg">
<rect width="22.5" height="26" rx="6" fill="white"/>
<path d="M21.25 0H1.25C0.918479 0 0.600537 0.152182 0.366116 0.423068C0.131696 0.693954 0 1.06135 0 1.44444V24.5556C0 24.9386 0.131696 25.306 0.366116 25.5769C0.600537 25.8478 0.918479 26 1.25 26H12.0187V15.9467H9.09625V12.0106H12.0187V9.12167C12.0187 5.76333 13.7937 3.93322 16.3937 3.93322C17.2675 3.93033 18.1425 3.98233 19.0125 4.08778V7.58333H17.2188C15.8087 7.58333 15.5338 8.36044 15.5338 9.49722V12.0033H18.905L18.4675 15.9394H15.5325V26H21.25C21.5815 26 21.8995 25.8478 22.1339 25.5769C22.3683 25.306 22.5 24.9386 22.5 24.5556V1.44444C22.5 1.06135 22.3683 0.693954 22.1339 0.423068C21.8995 0.152182 21.5815 0 21.25 0Z" fill="#3B5998"/>
</svg>
