<svg width="24" height="26" viewBox="0 0 24 26" fill="none" xmlns="http://www.w3.org/2000/svg">
<g clip-path="url(#clip0_77_1706)">
<path d="M2.24191 0H21.5276C22.4156 0 23.1348 0.831071 23.1348 1.85714V24.1429C23.1348 25.1689 22.4156 26 21.5276 26H2.24191C1.35396 26 0.634766 25.1689 0.634766 24.1429V1.85714C0.634766 0.831071 1.35396 0 2.24191 0Z" fill="#E52D27"/>
<path d="M10.1843 15.213L10.1835 10.4197L14.33 12.8247L10.1843 15.213ZM19.288 9.58865C19.288 9.58865 19.1377 8.41308 18.678 7.89493C18.0946 7.21522 17.4406 7.21243 17.1408 7.1725C14.9937 6.99979 8.54504 6.99979 6.39709 7.1725C6.09736 7.21243 5.44323 7.21522 4.85984 7.89493C4.39939 8.41308 4.24995 9.58865 4.24995 9.58865C4.24995 9.58865 4.09644 10.9694 4.09644 12.3502V13.6446C4.09644 15.0254 4.24995 16.4053 4.24995 16.4053C4.24995 16.4053 4.39939 17.5809 4.85984 18.099C5.44323 18.7787 6.20982 18.7564 6.55134 18.8279C7.7792 18.9589 14.9929 18.9942 17.1408 18.8214C17.4406 18.7815 18.0946 18.7787 18.678 18.099C19.1385 17.5809 19.288 16.4053 19.288 16.4053C19.288 16.4053 19.4407 15.0245 19.4407 13.6446V12.3502C19.4415 10.9694 19.288 9.58865 19.288 9.58865Z" fill="white"/>
</g>
<defs>
<clipPath id="clip0_77_1706">
<rect width="22.5" height="26" fill="white" transform="translate(0.634766)"/>
</clipPath>
</defs>
</svg>
